<svg xmlns="http://www.w3.org/2000/svg" width="27.443" height="29.547" viewBox="0 0 27.443 29.547">
  <g id="Grupo_144" data-name="Grupo 144" transform="translate(4049.02 5145.914)">
    <g id="done-24px" transform="translate(-4049.02 -5145.914)">
      <path id="Caminho_697" data-name="Caminho 697" d="M0,0H27.443V29.547H0Z" fill="none"/>
      <path id="Caminho_698" data-name="Caminho 698" d="M9.8,18.65,5,13.479,3.4,15.2,9.8,22.1,23.525,7.324,21.924,5.6Z" transform="translate(0.488 1.294)" fill="#fcf9f9"/>
    </g>
    <g id="done_outline-24px" transform="translate(-4047 -5142)">
      <path id="Caminho_699" data-name="Caminho 699" d="M0,0H24V24H0Z" fill="none"/>
      <path id="Caminho_700" data-name="Caminho 700" d="M19.77,5.03l1.4,1.4L8.43,19.17l-5.6-5.6,1.4-1.4,4.2,4.2L19.77,5.03m0-2.83L8.43,13.54l-4.2-4.2L0,13.57,8.43,22,24,6.43,19.77,2.2Z" fill="#fef9f9"/>
    </g>
    <line id="Linha_1" data-name="Linha 1" y1="13" x2="12" transform="translate(-4037.5 -5136.5)" fill="none" stroke="#fbf9f9" stroke-width="1"/>
  </g>
</svg>
