<svg xmlns="http://www.w3.org/2000/svg" width="457.109" height="457.144" viewBox="0 0 457.109 457.144">
  <g id="curriculo_1_" data-name="curriculo (1)" transform="translate(-0.07 0)">
    <path id="Caminho_674" data-name="Caminho 674" d="M54.93,194.527h78.078a9.142,9.142,0,0,0,9.145-9.145V151.918a34.049,34.049,0,0,0-34.02-34.008H79.793a34.046,34.046,0,0,0-34.008,34.008v33.465a9.142,9.142,0,0,0,9.145,9.145Zm9.141-42.609a15.742,15.742,0,0,1,15.723-15.723h28.34a15.745,15.745,0,0,1,15.734,15.723v24.324H64.07Zm0,0" fill="#f9f6f6"/>
    <path id="Caminho_675" data-name="Caminho 675" d="M58.32,103.066a114.32,114.32,0,0,0,35.644,5.789,114.278,114.278,0,0,0,35.641-5.789,9.146,9.146,0,0,0,5.832-11.6L122.652,53.406a30.316,30.316,0,0,0-57.445,0L52.492,91.476a9.133,9.133,0,0,0,5.828,11.59Zm24.207-43.8a12.1,12.1,0,0,1,11.438-8.187,11.925,11.925,0,0,1,11.348,8.141l9.723,28.953a91.728,91.728,0,0,1-42.16,0Zm0,0" fill="#f9f6f6"/>
    <path id="Caminho_676" data-name="Caminho 676" d="M168.543,105.156H305.117a9.143,9.143,0,0,0,0-18.285H168.543a9.143,9.143,0,0,0,0,18.285Zm0,0" fill="#f9f6f6"/>
    <path id="Caminho_677" data-name="Caminho 677" d="M168.543,148.879H305.117a9.143,9.143,0,0,0,0-18.285H168.543a9.143,9.143,0,0,0,0,18.285Zm0,0" fill="#f9f6f6"/>
    <path id="Caminho_678" data-name="Caminho 678" d="M168.543,192.6H305.117a9.143,9.143,0,0,0,0-18.285H168.543a9.143,9.143,0,0,0,0,18.285Zm0,0" fill="#f9f6f6"/>
    <path id="Caminho_679" data-name="Caminho 679" d="M47.457,236.332H309.168a9.145,9.145,0,0,0,0-18.289H47.457a9.145,9.145,0,0,0,0,18.289Zm0,0" fill="#f9f6f6"/>
    <path id="Caminho_680" data-name="Caminho 680" d="M47.457,280.059H309.168a9.143,9.143,0,1,0,0-18.285H47.457a9.143,9.143,0,1,0,0,18.285Zm0,0" fill="#f9f6f6"/>
    <path id="Caminho_681" data-name="Caminho 681" d="M367.215,277.336a89.951,89.951,0,0,0-10.672.7V9.144A9.138,9.138,0,0,0,347.4,0H9.214A9.142,9.142,0,0,0,.07,9.144V347.429H.156a9.043,9.043,0,0,0,2.594,6.457L103.223,454.46a9.131,9.131,0,0,0,6.465,2.684s260.191-.055,260.273-.141c48.328-1.469,87.219-41.09,87.219-89.7a90.069,90.069,0,0,0-89.965-89.969ZM100.543,425.91,31.27,356.57h69.273Zm18.289,12.945V347.43a9.142,9.142,0,0,0-9.145-9.145H18.356v-320h319.9V282.219A89.946,89.946,0,0,0,302.1,305.5H47.445a9.143,9.143,0,0,0,0,18.285h241.2a89.558,89.558,0,0,0,24.477,115.07Zm248.383,0a71.617,71.617,0,1,1,71.68-71.551,71.633,71.633,0,0,1-71.68,71.551Zm0,0" fill="#f9f6f6"/>
    <path id="Caminho_682" data-name="Caminho 682" d="M402.875,331.637a9.143,9.143,0,0,0-12.93,0l-22.668,22.672-22.672-22.672a9.141,9.141,0,1,0-12.926,12.93l22.668,22.672L331.68,389.91a9.141,9.141,0,1,0,12.926,12.93l22.672-22.672,22.668,22.672a9.143,9.143,0,0,0,12.93-12.93L380.2,367.239l22.672-22.672a9.143,9.143,0,0,0,0-12.93Zm0,0" fill="#f9f6f6"/>
  </g>
</svg>
