<svg xmlns="http://www.w3.org/2000/svg" width="426.661" height="511.992" viewBox="0 0 426.661 511.992">
  <g id="dolar" transform="translate(-42.665 0)">
    <g id="Grupo_142" data-name="Grupo 142">
      <path id="Caminho_690" data-name="Caminho 690" d="M292.908,261.559,277.57,280.14C338.5,290.124,384,328.1,384,373.324c0,50.453-56.512,91.733-128,95.616V306.231l-21.333,25.813V468.577a156.139,156.139,0,0,1-89.024-28.821l-13.568,16.427c.107,0,.149.213.256.3a177.191,177.191,0,0,0,102.336,33.472v11.371a10.667,10.667,0,0,0,21.334,0V490.253c83.2-4.053,149.333-54.891,149.333-116.928C405.335,320.8,357.932,276.449,292.908,261.559Z" fill="#009688"/>
      <path id="Caminho_691" data-name="Caminho 691" d="M200.876,272.481l15.531-18.795c-62.592-9.237-109.739-47.659-109.739-93.7,0-50.453,56.512-91.733,128-95.616V231.585L256,205.75V64.673a155.943,155.943,0,0,1,89.365,29.035,10.248,10.248,0,0,0,2.261,1.109l12.8-15.573a10.41,10.41,0,0,0-2.133-2.475A177.2,177.2,0,0,0,256,43.361V31.991a10.667,10.667,0,1,0-21.334,0V43.063c-83.2,4.053-149.333,54.869-149.333,116.928C85.335,213.324,134.252,258.316,200.876,272.481Z" fill="#009688"/>
    </g>
    <path id="Caminho_692" data-name="Caminho 692" d="M53.335,511.991a10.666,10.666,0,0,1-8.235-17.45L450.434,3.873a10.668,10.668,0,1,1,16.448,13.59h0L61.548,508.129A10.665,10.665,0,0,1,53.335,511.991Z" fill="#f44336"/>
    <path id="Caminho_693" data-name="Caminho 693" d="M53.335,511.991a10.666,10.666,0,0,1-8.235-17.45L450.434,3.873a10.668,10.668,0,1,1,16.448,13.59h0L61.548,508.129A10.665,10.665,0,0,1,53.335,511.991Z" fill="#fff"/>
    <path id="Caminho_694" data-name="Caminho 694" d="M245.335,277.324c-88.235,0-160-52.629-160-117.333,0-62.08,66.133-113.067,149.333-117.077V31.991a10.667,10.667,0,1,1,21.334,0v10.88a176.574,176.574,0,0,1,102.4,33.92,10.666,10.666,0,0,1-12.383,17.371q-.289-.207-.566-.433A155.415,155.415,0,0,0,256,64.225V266.657A10.667,10.667,0,0,1,245.335,277.324ZM234.668,64.268c-71.509,3.776-128,45.269-128,95.723s56.491,91.947,128,95.723Z" fill="#fff"/>
    <path id="Caminho_695" data-name="Caminho 695" d="M245.335,511.991a10.667,10.667,0,0,1-10.667-10.667v-10.88a176.574,176.574,0,0,1-102.4-33.92,10.666,10.666,0,1,1,12.383-17.371q.289.207.566.432a155.415,155.415,0,0,0,89.451,29.5V266.657a10.667,10.667,0,0,1,10.667-10.667c88.235,0,160,52.629,160,117.333C405.335,435.4,339.2,486.39,256,490.4v10.923A10.668,10.668,0,0,1,245.335,511.991ZM256,277.6V469.046c71.509-3.776,128-45.269,128-95.723S327.511,281.377,256,277.6Z" fill="#fbf5f5"/>
  </g>
</svg>
