<svg id="tempo-e-dinheiro" xmlns="http://www.w3.org/2000/svg" width="100" height="100" viewBox="0 0 480 480">
  <g id="Grupo_129" data-name="Grupo 129">
    <g id="Grupo_128" data-name="Grupo 128">
      <path id="Caminho_665" data-name="Caminho 665" d="M304,160h96v40.472a71.919,71.919,0,0,0-42.32,122.944A72,72,0,0,0,480,272a72.078,72.078,0,0,0-64-71.528V160h8a7.993,7.993,0,0,0,8-8V104a7.993,7.993,0,0,0-8-8H299.32a64,64,0,1,0-110.648,0H56a7.993,7.993,0,0,0-8,8v48a7.993,7.993,0,0,0,8,8h8v40.472A71.919,71.919,0,0,0,21.68,323.416,72,72,0,0,0,144,272a72.078,72.078,0,0,0-64-71.528V160h96V376H0v16H225.424l-48.176,75.7A8,8,0,0,0,184,480H296a8.005,8.005,0,0,0,6.752-12.3L254.576,392H480V376H304Zm96,136a8,8,0,0,1-8-8H376a24.029,24.029,0,0,0,24,24v15.368a55.306,55.306,0,0,1-31.144-15.4A55.888,55.888,0,0,1,400,216.64V232a24,24,0,0,0,0,48h16a8,8,0,0,1,0,16Zm64-24a55.967,55.967,0,0,1-16.9,40.008,55.267,55.267,0,0,1-31.1,15.36V312a24,24,0,0,0,0-48H400a8,8,0,0,1,0-16h16a8,8,0,0,1,8,8h16a24.029,24.029,0,0,0-24-24V216.64A56.045,56.045,0,0,1,464,272ZM244,16a47.946,47.946,0,0,1,33.5,82.3A48,48,0,0,1,196,64,48.048,48.048,0,0,1,244,16ZM128,272a55.967,55.967,0,0,1-16.9,40.008A56,56,0,0,1,16,272a56,56,0,0,1,112,0ZM281.432,464H198.568L240,398.9ZM288,152V376H248V232H232V376H192V152a7.993,7.993,0,0,0-8-8H64V112H201.848a63.535,63.535,0,0,0,84.312,0H416v32H296A7.993,7.993,0,0,0,288,152Z" fill="#fff"/>
    </g>
  </g>
  <g id="Grupo_131" data-name="Grupo 131">
    <g id="Grupo_130" data-name="Grupo 130">
      <path id="Caminho_666" data-name="Caminho 666" d="M64,232v32H32v16H72a7.993,7.993,0,0,0,8-8V232Z" fill="#fff"/>
    </g>
  </g>
</svg>
