<svg xmlns="http://www.w3.org/2000/svg" width="2085.65" height="770.084" viewBox="0 0 2085.65 770.084">
  <g id="Grupo_143" data-name="Grupo 143" transform="translate(4143 -2801)">
    <path id="Caminho_696" data-name="Caminho 696" d="M0,0H2085.65V770.084H0Z" transform="translate(-4143 2801)" fill="#111344"/>
    <g id="tempo-e-dinheiro" transform="translate(-3931.94 2910.924)">
      <g id="Grupo_129" data-name="Grupo 129">
        <g id="Grupo_128" data-name="Grupo 128">
          <path id="Caminho_665" data-name="Caminho 665" d="M192.867,91.706h60.905v23.2c-22.8,2.288-40.6,19.79-40.6,41a39.392,39.392,0,0,0,13.754,29.47,49.094,49.094,0,0,0,63.824.023,39.415,39.415,0,0,0,13.78-29.493c0-21.207-17.8-38.709-40.6-41v-23.2H269a4.845,4.845,0,0,0,5.075-4.585V59.609A4.845,4.845,0,0,0,269,55.024H189.9a34.075,34.075,0,0,0,5.507-18.341C195.405,16.457,177.189,0,154.8,0s-40.6,16.457-40.6,36.682a34.1,34.1,0,0,0,5.5,18.341H35.528a4.845,4.845,0,0,0-5.075,4.585V87.121a4.845,4.845,0,0,0,5.075,4.585H40.6v23.2C17.8,117.191,0,134.693,0,155.9a39.392,39.392,0,0,0,13.754,29.47,47.86,47.86,0,0,0,31.925,11.8,47.842,47.842,0,0,0,31.9-11.775A39.414,39.414,0,0,0,91.358,155.9c0-21.207-17.8-38.709-40.6-41v-23.2H111.66v123.8H0v9.171H143.016l-30.564,43.391a4.221,4.221,0,0,0-.167,4.672,5.2,5.2,0,0,0,4.451,2.375h71.056a5.188,5.188,0,0,0,4.451-2.38,4.221,4.221,0,0,0-.167-4.672L161.511,224.68H304.527v-9.171H192.867Zm60.905,77.95a4.851,4.851,0,0,1-5.075-4.585H238.547c0,7.584,6.832,13.756,15.226,13.756v8.808a36.639,36.639,0,0,1-19.759-8.827A30.621,30.621,0,0,1,223.32,155.9c0-16.136,13.267-29.493,30.453-31.73v8.8c-8.395,0-15.226,6.172-15.226,13.756s6.832,13.756,15.226,13.756h10.151a4.609,4.609,0,1,1,0,9.171Zm40.6-13.756a30.643,30.643,0,0,1-10.719,22.931,36.617,36.617,0,0,1-19.733,8.8v-8.808c8.395,0,15.226-6.172,15.226-13.756s-6.832-13.756-15.226-13.756H253.773a4.609,4.609,0,1,1,0-9.171h10.151A4.851,4.851,0,0,1,269,146.73H279.15c0-7.584-6.832-13.756-15.226-13.756v-8.8C281.109,126.408,294.377,139.765,294.377,155.9ZM154.8,9.171c16.795,0,30.453,12.339,30.453,27.512a26.243,26.243,0,0,1-9.2,19.657,32.686,32.686,0,0,1-42.542-.028,26.216,26.216,0,0,1-9.166-19.63C124.349,21.51,138.007,9.171,154.8,9.171ZM81.207,155.9a30.643,30.643,0,0,1-10.719,22.931A37.182,37.182,0,0,1,45.679,188a37.2,37.2,0,0,1-24.834-9.189A30.621,30.621,0,0,1,10.151,155.9c0-17.695,15.942-32.1,35.528-32.1S81.207,138.206,81.207,155.9ZM178.55,265.948H125.978l26.286-37.315Zm4.167-178.827V215.509H157.339V132.974H147.188v82.536H121.811V87.121a4.845,4.845,0,0,0-5.075-4.585H40.6V64.194h87.455a43.585,43.585,0,0,0,53.49,0h82.375V82.536H187.792A4.845,4.845,0,0,0,182.717,87.121Z" fill="#fff"/>
        </g>
      </g>
      <g id="Grupo_131" data-name="Grupo 131" transform="translate(20.302 132.974)">
        <g id="Grupo_130" data-name="Grupo 130">
          <path id="Caminho_666" data-name="Caminho 666" d="M52.3,232v18.341H32v9.171H57.377a4.845,4.845,0,0,0,5.075-4.585V232Z" transform="translate(-32 -232)" fill="#fff"/>
        </g>
      </g>
    </g>
    <g id="curriculo_1_" data-name="curriculo (1)" transform="translate(-3172.007 2917.403)">
      <path id="Caminho_674" data-name="Caminho 674" d="M51.587,161.824h49.535a5.541,5.541,0,0,0,5.8-5.241V137.4c0-10.749-9.68-19.492-21.583-19.492H67.361c-11.9,0-21.576,8.743-21.576,19.492v19.181a5.541,5.541,0,0,0,5.8,5.241Zm5.8-24.422c0-4.968,4.476-9.012,9.975-9.012h17.98c5.507,0,9.982,4.043,9.982,9.012v13.942H57.386Zm0,0" transform="translate(-16.782 -50.328)" fill="#f9f6f6"/>
      <path id="Caminho_675" data-name="Caminho 675" d="M56.016,73.069a79.629,79.629,0,0,0,22.614,3.318,79.6,79.6,0,0,0,22.612-3.318,5.687,5.687,0,0,0,3.383-2.628,4.774,4.774,0,0,0,.317-4.021L96.831,44.606c-2.612-7.068-9.925-11.817-18.2-11.817-8.238,0-15.561,4.735-18.245,11.817L52.319,66.426a4.786,4.786,0,0,0,.317,4.019,5.683,5.683,0,0,0,3.38,2.624ZM71.374,47.962a7.657,7.657,0,0,1,7.256-4.693,7.545,7.545,0,0,1,7.2,4.666L92,64.53a64.258,64.258,0,0,1-26.748,0Zm0,0" transform="translate(-19.061 -13.995)" fill="#f9f6f6"/>
      <path id="Caminho_676" data-name="Caminho 676" d="M165.2,97.351h86.647a5.267,5.267,0,1,0,0-10.48H165.2a5.267,5.267,0,1,0,0,10.48Zm0,0" transform="translate(-58.317 -37.08)" fill="#f9f6f6"/>
      <path id="Caminho_677" data-name="Caminho 677" d="M165.2,141.074h86.647a5.267,5.267,0,1,0,0-10.48H165.2a5.267,5.267,0,1,0,0,10.48Zm0,0" transform="translate(-58.317 -55.742)" fill="#f9f6f6"/>
      <path id="Caminho_678" data-name="Caminho 678" d="M165.2,184.8h86.647a5.267,5.267,0,1,0,0-10.48H165.2a5.267,5.267,0,1,0,0,10.48Zm0,0" transform="translate(-58.317 -74.406)" fill="#f9f6f6"/>
      <path id="Caminho_679" data-name="Caminho 679" d="M44.114,228.526H210.152a5.268,5.268,0,1,0,0-10.483H44.114a5.268,5.268,0,1,0,0,10.483Zm0,0" transform="translate(-14.05 -93.069)" fill="#f9f6f6"/>
      <path id="Caminho_680" data-name="Caminho 680" d="M44.114,272.254H210.152a5.267,5.267,0,1,0,0-10.48H44.114a5.267,5.267,0,1,0,0,10.48Zm0,0" transform="translate(-14.05 -111.735)" fill="#f9f6f6"/>
      <path id="Caminho_681" data-name="Caminho 681" d="M233,158.959a63.086,63.086,0,0,0-6.771.4V5.241A5.539,5.539,0,0,0,220.429,0H5.872A5.541,5.541,0,0,0,.07,5.241V199.134H.124a4.931,4.931,0,0,0,1.646,3.7L65.513,260.48a6.122,6.122,0,0,0,4.1,1.538s165.074-.031,165.126-.081c30.661-.842,55.334-23.551,55.334-51.412,0-28.434-25.605-51.567-57.077-51.567ZM63.813,244.116,19.864,204.373H63.813Zm11.6,7.42v-52.4a5.541,5.541,0,0,0-5.8-5.241H11.671V10.48H214.627V161.758A58.043,58.043,0,0,0,191.688,175.1H30.126a5.267,5.267,0,1,0,0,10.48H183.148A47.476,47.476,0,0,0,176,210.526c0,16.743,8.932,31.6,22.676,41.01Zm157.582,0c-25.033,0-45.4-18.4-45.4-41.01,0-22.656,20.364-41.086,45.4-41.086,25.077,0,45.476,18.431,45.476,41.086,0,22.613-20.4,41.01-45.476,41.01Zm0,0" transform="translate(-0.07 0)" fill="#f9f6f6"/>
      <path id="Caminho_682" data-name="Caminho 682" d="M375.868,330.494a6.248,6.248,0,0,0-8.2,0l-14.381,12.995L338.9,330.494a6.245,6.245,0,0,0-8.2,0,4.887,4.887,0,0,0,0,7.411L345.081,350.9,330.7,363.894a4.887,4.887,0,0,0,0,7.411,6.241,6.241,0,0,0,8.2,0l14.384-12.995,14.381,12.995a6.244,6.244,0,0,0,8.2,0,4.89,4.89,0,0,0,0-7.411L361.484,350.9,375.868,337.9A4.89,4.89,0,0,0,375.868,330.494Zm0,0" transform="translate(-120.316 -140.412)" fill="#f9f6f6"/>
    </g>
    <g id="dolar" transform="translate(-2510.783 2910.7)">
      <g id="Grupo_142" data-name="Grupo 142" transform="translate(25.513 10.909)">
        <path id="Caminho_690" data-name="Caminho 690" d="M228.243,261.559l-9.171,9.506c36.431,5.108,63.639,24.534,63.639,47.672,0,25.811-33.79,46.93-76.535,48.916V284.413L193.42,297.619v69.849a104.414,104.414,0,0,1-53.23-14.745l-8.113,8.4c.064,0,.089.109.153.153A118.39,118.39,0,0,0,193.42,378.4v5.817c0,3.014,2.856,5.457,6.378,5.457s6.378-2.443,6.378-5.457v-5.664c49.748-2.074,89.291-28.082,89.291-59.819C295.467,291.867,267.123,269.177,228.243,261.559Z" transform="translate(-104.128 -138.657)" fill="#009688"/>
        <path id="Caminho_691" data-name="Caminho 691" d="M154.42,149.814l9.286-9.615c-37.426-4.726-65.617-24.382-65.617-47.934,0-25.811,33.79-46.93,76.535-48.916v85.544l12.756-13.217V43.5a104.251,104.251,0,0,1,53.434,14.854,6.606,6.606,0,0,0,1.352.567l7.654-7.967a5.664,5.664,0,0,0-1.275-1.266A118.407,118.407,0,0,0,187.381,32.6V26.781c0-3.014-2.856-5.457-6.378-5.457s-6.378,2.443-6.378,5.457v5.664c-49.748,2.073-89.291,28.071-89.291,59.819C85.335,119.55,114.584,142.567,154.42,149.814Z" transform="translate(-85.334 -21.324)" fill="#009688"/>
      </g>
      <path id="Caminho_692" data-name="Caminho 692" d="M49.045,261.93c-3.522,0-6.379-2.441-6.38-5.455A5,5,0,0,1,44.121,253L286.483,1.981a7.14,7.14,0,0,1,8.98-.731,4.937,4.937,0,0,1,.854,7.684h0L53.956,259.955A6.851,6.851,0,0,1,49.045,261.93Z" transform="translate(-42.665 0)" fill="#f44336"/>
      <path id="Caminho_693" data-name="Caminho 693" d="M49.045,261.93c-3.522,0-6.379-2.441-6.38-5.455A5,5,0,0,1,44.121,253L286.483,1.981a7.14,7.14,0,0,1,8.98-.731,4.937,4.937,0,0,1,.854,7.684h0L53.956,259.955A6.851,6.851,0,0,1,49.045,261.93Z" transform="translate(-42.665 0)" fill="#fff"/>
      <path id="Caminho_694" data-name="Caminho 694" d="M181,152.292c-52.759,0-95.669-26.925-95.669-60.027,0-31.76,39.543-57.844,89.291-59.9V26.781c0-3.014,2.856-5.457,6.378-5.457s6.378,2.443,6.378,5.457v5.566A117.863,117.863,0,0,1,248.611,49.7a4.973,4.973,0,0,1,1.491,7.611,7.094,7.094,0,0,1-8.9,1.276q-.173-.106-.338-.222a103.781,103.781,0,0,0-53.486-15.094V146.834C187.382,149.848,184.527,152.292,181,152.292Zm-6.378-109c-42.758,1.932-76.535,23.159-76.535,48.971s33.778,47.039,76.535,48.971Z" transform="translate(-59.821 -10.415)" fill="#fff"/>
      <path id="Caminho_695" data-name="Caminho 695" d="M198.075,386.958c-3.522,0-6.378-2.443-6.378-5.457v-5.566a117.863,117.863,0,0,1-61.228-17.353,4.973,4.973,0,0,1-1.491-7.611,7.094,7.094,0,0,1,8.9-1.276q.173.106.338.221A103.781,103.781,0,0,0,191.7,365.01V261.447c0-3.014,2.856-5.457,6.378-5.457,52.759,0,95.669,26.925,95.669,60.027,0,31.76-39.543,57.844-89.291,59.9V381.5C204.453,384.515,201.6,386.958,198.075,386.958Zm6.378-119.912v97.942c42.758-1.932,76.535-23.159,76.535-48.971S247.211,268.978,204.453,267.046Z" transform="translate(-76.892 -125.027)" fill="#fbf5f5"/>
    </g>
    <text id="_Economia_e_flexibilidade" data-name="   Economia 
e flexibilidade" transform="translate(-4011 3273)" fill="#f5fbf9" font-size="70" font-family="Roboto-Medium, Roboto" font-weight="500"><tspan x="0" y="73" xml:space="preserve">   Economia </tspan><tspan x="0" y="165">e flexibilidade</tspan></text>
    <text id="Sem_encargos_trabalhistas_" data-name="Sem encargos            trabalhistas " transform="translate(-3281 3273)" fill="#f5fbf9" font-size="70" font-family="Roboto-Medium, Roboto" font-weight="500"><tspan x="0" y="73" xml:space="preserve">Sem encargos            </tspan></text>
    <text id="Sem_custos_" data-name="Sem custos  " transform="translate(-2561 3273)" fill="#f5fbf9" font-size="70" font-family="Roboto-Medium, Roboto" font-weight="500"><tspan x="0" y="73" xml:space="preserve">Sem custos  </tspan></text>
    <text id="trabalhistas" transform="translate(-3235 3364)" fill="#f5fbf9" font-size="70" font-family="Roboto-Medium, Roboto" font-weight="500"><tspan x="0" y="73">trabalhistas</tspan></text>
    <text id="fixos" transform="translate(-2462 3360)" fill="#f5fbf9" font-size="70" font-family="Roboto-Medium, Roboto" font-weight="500"><tspan x="0" y="73">fixos</tspan></text>
  </g>
</svg>
