<svg xmlns="http://www.w3.org/2000/svg" width="2085.65" height="770.084" viewBox="0 0 2085.65 770.084">
  <g id="Grupo_143" data-name="Grupo 143" transform="translate(4143 -2801)">
    <path id="Caminho_696" data-name="Caminho 696" d="M0,0H2085.65V770.084H0Z" transform="translate(-4143 2801)" fill="#111344"/>
    <g id="tempo-e-dinheiro" transform="translate(-3978.94 2910.962)">
      <g id="Grupo_129" data-name="Grupo 129">
        <g id="Grupo_128" data-name="Grupo 128">
          <path id="Caminho_665" data-name="Caminho 665" d="M220.224,107.453h69.544v27.18c-26.039,2.681-46.363,23.188-46.363,48.037a46.661,46.661,0,0,0,15.705,34.53,54.976,54.976,0,0,0,72.877.027,46.686,46.686,0,0,0,15.734-34.557c0-24.848-20.324-45.356-46.363-48.037v-27.18h5.8a5.591,5.591,0,0,0,5.8-5.373V69.844a5.591,5.591,0,0,0-5.8-5.373H216.834a40.681,40.681,0,0,0,6.288-21.491c0-23.7-20.8-42.981-46.363-42.981S130.4,19.282,130.4,42.981a40.713,40.713,0,0,0,6.282,21.491H40.568a5.591,5.591,0,0,0-5.8,5.373V102.08a5.591,5.591,0,0,0,5.8,5.373h5.8v27.18C20.324,137.314,0,157.821,0,182.67A46.661,46.661,0,0,0,15.705,217.2a53.839,53.839,0,0,0,36.453,13.824,53.818,53.818,0,0,0,36.424-13.8,46.686,46.686,0,0,0,15.734-34.557c0-24.848-20.324-45.356-46.363-48.037v-27.18H127.5V252.514H0v10.745H163.3L128.4,314.1a5.054,5.054,0,0,0-.191,5.475,5.894,5.894,0,0,0,5.083,2.783h81.135a5.887,5.887,0,0,0,5.083-2.788,5.054,5.054,0,0,0-.191-5.475l-34.9-50.836h163.3V252.514h-127.5Zm69.544,91.335a5.6,5.6,0,0,1-5.8-5.373H272.382c0,8.886,7.8,16.118,17.386,16.118v10.321a41.344,41.344,0,0,1-22.561-10.342A36.27,36.27,0,0,1,255,182.67c0-18.906,15.149-34.557,34.772-37.179v10.315c-9.586,0-17.386,7.232-17.386,16.118s7.8,16.118,17.386,16.118h11.591a5.388,5.388,0,1,1,0,10.745Zm46.363-16.118a36.3,36.3,0,0,1-12.24,26.869,41.317,41.317,0,0,1-22.532,10.315V209.533c9.586,0,17.386-7.232,17.386-16.118s-7.8-16.118-17.386-16.118H289.768a5.388,5.388,0,1,1,0-10.745h11.591a5.6,5.6,0,0,1,5.8,5.373h11.591c0-8.886-7.8-16.118-17.386-16.118V145.491C320.982,148.113,336.131,163.764,336.131,182.67ZM176.759,10.745c19.177,0,34.772,14.458,34.772,32.236a31.084,31.084,0,0,1-10.5,23.033,36.6,36.6,0,0,1-48.577-.032,31.053,31.053,0,0,1-10.466-23C141.986,25.2,157.582,10.745,176.759,10.745ZM92.726,182.67a36.3,36.3,0,0,1-12.24,26.869,41.826,41.826,0,0,1-28.328,10.74A41.847,41.847,0,0,1,23.8,209.512,36.27,36.27,0,0,1,11.591,182.67c0-20.733,18.2-37.609,40.568-37.609S92.726,161.937,92.726,182.67ZM203.875,311.613H143.847l30.014-43.723Zm4.758-209.533V252.514H179.656V155.807H168.066v96.708H139.089V102.08a5.591,5.591,0,0,0-5.8-5.373H46.363V75.217h99.86a48.769,48.769,0,0,0,61.077,0h94.059V96.708H214.429A5.591,5.591,0,0,0,208.633,102.08Z" fill="#fff"/>
        </g>
      </g>
      <g id="Grupo_131" data-name="Grupo 131" transform="translate(23.181 155.807)">
        <g id="Grupo_130" data-name="Grupo 130">
          <path id="Caminho_666" data-name="Caminho 666" d="M55.181,232v21.491H32v10.745H60.977a5.591,5.591,0,0,0,5.8-5.373V232Z" transform="translate(-32 -232)" fill="#fff"/>
        </g>
      </g>
    </g>
    <g id="curriculo_1_" data-name="curriculo (1)" transform="translate(-3209.415 2918.554)">
      <path id="Caminho_674" data-name="Caminho 674" d="M52.41,169.364h56.561a6.394,6.394,0,0,0,6.624-6.141V140.749c0-12.595-11.053-22.839-24.644-22.839H70.421c-13.583,0-24.636,10.244-24.636,22.839v22.474a6.394,6.394,0,0,0,6.624,6.141Zm6.622-28.616c0-5.821,5.111-10.559,11.39-10.559h20.53c6.288,0,11.4,4.738,11.4,10.559v16.336H59.031Zm0,0" transform="translate(-12.668 -38.724)" fill="#f9f6f6"/>
      <path id="Caminho_675" data-name="Caminho 675" d="M56.584,79.986a88.777,88.777,0,0,0,25.822,3.888,88.744,88.744,0,0,0,25.819-3.888,6.522,6.522,0,0,0,3.863-3.08,5.724,5.724,0,0,0,.362-4.712l-9.262-25.559C100.2,38.353,91.854,32.789,82.405,32.789c-9.406,0-17.768,5.548-20.833,13.846L52.362,72.2a5.739,5.739,0,0,0,.362,4.709,6.518,6.518,0,0,0,3.86,3.075ZM74.12,50.567a8.739,8.739,0,0,1,8.286-5.5,8.613,8.613,0,0,1,8.221,5.467L97.669,69.98a71.543,71.543,0,0,1-30.542,0Zm0,0" transform="translate(-14.386 -10.768)" fill="#f9f6f6"/>
      <path id="Caminho_676" data-name="Caminho 676" d="M166.024,99.151h98.937a6.157,6.157,0,1,0,0-12.28H166.024a6.157,6.157,0,1,0,0,12.28Zm0,0" transform="translate(-43.979 -28.53)" fill="#f9f6f6"/>
      <path id="Caminho_677" data-name="Caminho 677" d="M166.024,142.874h98.937a6.157,6.157,0,1,0,0-12.28H166.024a6.157,6.157,0,1,0,0,12.28Zm0,0" transform="translate(-43.979 -42.889)" fill="#f9f6f6"/>
      <path id="Caminho_678" data-name="Caminho 678" d="M166.024,186.6h98.937a6.157,6.157,0,1,0,0-12.28H166.024a6.157,6.157,0,1,0,0,12.28Zm0,0" transform="translate(-43.979 -57.25)" fill="#f9f6f6"/>
      <path id="Caminho_679" data-name="Caminho 679" d="M44.937,230.326H234.526a6.159,6.159,0,1,0,0-12.283H44.937a6.159,6.159,0,1,0,0,12.283Zm0,0" transform="translate(-10.609 -71.609)" fill="#f9f6f6"/>
      <path id="Caminho_680" data-name="Caminho 680" d="M44.937,274.054H234.526a6.158,6.158,0,1,0,0-12.28H44.937a6.158,6.158,0,1,0,0,12.28Zm0,0" transform="translate(-10.609 -85.972)" fill="#f9f6f6"/>
      <path id="Caminho_681" data-name="Caminho 681" d="M266.038,186.253a70.219,70.219,0,0,0-7.731.467V6.141A6.392,6.392,0,0,0,251.685,0H6.694A6.394,6.394,0,0,0,.07,6.141V233.327H.132a5.847,5.847,0,0,0,1.879,4.336L74.8,305.207a6.888,6.888,0,0,0,4.683,1.8s188.488-.037,188.547-.094c35.01-.986,63.183-27.6,63.183-60.24,0-33.317-29.237-60.421-65.172-60.421ZM72.855,286.033,22.672,239.465H72.855ZM86.1,294.727v-61.4a6.394,6.394,0,0,0-6.624-6.141H13.316V12.28H245.06V189.533a65.915,65.915,0,0,0-26.192,15.635H34.39a6.157,6.157,0,1,0,0,12.28H209.116a56.708,56.708,0,0,0-8.161,29.227c0,19.617,10.2,37.026,25.892,48.052Zm179.934,0c-28.583,0-51.836-21.556-51.836-48.052,0-26.546,23.252-48.141,51.836-48.141,28.634,0,51.926,21.6,51.926,48.141,0,26.5-23.292,48.052-51.926,48.052Zm0,0" transform="translate(-0.07 0)" fill="#f9f6f6"/>
      <path id="Caminho_682" data-name="Caminho 682" d="M382.516,330.758a7,7,0,0,0-9.366,0l-16.421,15.226L340.3,330.758a6.994,6.994,0,0,0-9.364,0,5.824,5.824,0,0,0,0,8.683l16.421,15.226-16.421,15.226a5.824,5.824,0,0,0,0,8.683,6.99,6.99,0,0,0,9.364,0l16.424-15.226,16.421,15.226a6.994,6.994,0,0,0,9.367,0,5.829,5.829,0,0,0,0-8.683l-16.424-15.226,16.424-15.226A5.829,5.829,0,0,0,382.516,330.758Zm0,0" transform="translate(-90.716 -108.037)" fill="#f9f6f6"/>
    </g>
    <g id="dolar" transform="translate(-2528.623 2910.7)">
      <g id="Grupo_142" data-name="Grupo 142" transform="translate(29.132 12.783)">
        <path id="Caminho_690" data-name="Caminho 690" d="M241.883,261.559,231.411,272.7c41.6,5.985,72.666,28.747,72.666,55.858,0,30.243-38.583,54.988-87.391,57.316V288.337L202.121,303.81v81.843a116.943,116.943,0,0,1-60.781-17.276l-9.263,9.847c.073,0,.1.128.175.179a132.612,132.612,0,0,0,69.869,20.064v6.816c0,3.531,3.261,6.394,7.283,6.394s7.283-2.863,7.283-6.394v-6.637c56.8-2.43,101.956-32.9,101.956-70.091C318.642,297.071,286.278,270.485,241.883,261.559Z" transform="translate(-100.163 -117.553)" fill="#009688"/>
        <path id="Caminho_691" data-name="Caminho 691" d="M164.22,171.877l10.6-11.266C132.089,155.073,99.9,132.042,99.9,104.445c0-30.243,38.583-54.988,87.391-57.316V147.362l14.565-15.486V47.309a116.766,116.766,0,0,1,61.013,17.4,7.44,7.44,0,0,0,1.544.665l8.739-9.335A6.553,6.553,0,0,0,271.7,54.56a132.629,132.629,0,0,0-69.84-20.026V27.718c0-3.531-3.261-6.394-7.283-6.394s-7.283,2.863-7.283,6.394v6.637c-56.8,2.43-101.956,32.89-101.956,70.091C85.335,136.416,118.732,163.386,164.22,171.877Z" transform="translate(-85.334 -21.324)" fill="#009688"/>
      </g>
      <path id="Caminho_692" data-name="Caminho 692" d="M49.95,306.906c-4.022,0-7.284-2.861-7.285-6.392a5.936,5.936,0,0,1,1.662-4.068L321.067,2.321a8,8,0,0,1,10.254-.857,5.876,5.876,0,0,1,.976,9h0L55.557,304.591A7.72,7.72,0,0,1,49.95,306.906Z" transform="translate(-42.665 0)" fill="#f44336"/>
      <path id="Caminho_693" data-name="Caminho 693" d="M49.95,306.906c-4.022,0-7.284-2.861-7.285-6.392a5.936,5.936,0,0,1,1.662-4.068L321.067,2.321a8,8,0,0,1,10.254-.857,5.876,5.876,0,0,1,.976,9h0L55.557,304.591A7.72,7.72,0,0,1,49.95,306.906Z" transform="translate(-42.665 0)" fill="#fff"/>
      <path id="Caminho_694" data-name="Caminho 694" d="M194.574,174.78c-60.242,0-109.239-31.548-109.239-70.334,0-37.213,45.152-67.777,101.956-70.18V27.718c0-3.531,3.261-6.394,7.283-6.394s7.283,2.863,7.283,6.394V34.24A132.042,132.042,0,0,1,271.77,54.573a5.911,5.911,0,0,1,1.7,8.918,7.952,7.952,0,0,1-10.157,1.495q-.2-.124-.386-.26A116.259,116.259,0,0,0,201.857,47.04V168.386C201.857,171.917,198.6,174.78,194.574,174.78ZM187.291,47.066C138.469,49.33,99.9,74.2,99.9,104.446s38.569,55.116,87.391,57.38Z" transform="translate(-56.202 -8.541)" fill="#fff"/>
      <path id="Caminho_695" data-name="Caminho 695" d="M208.044,409.446c-4.022,0-7.283-2.863-7.283-6.394V396.53A132.042,132.042,0,0,1,130.848,376.2a5.911,5.911,0,0,1-1.7-8.918,7.952,7.952,0,0,1,10.157-1.5q.2.124.386.259a116.259,116.259,0,0,0,61.072,17.686V262.384c0-3.531,3.261-6.394,7.283-6.394,60.242,0,109.239,31.548,109.239,70.334,0,37.213-45.152,67.777-101.956,70.18v6.548C215.327,406.583,212.066,409.446,208.044,409.446Zm7.283-140.5V383.7c48.822-2.263,87.391-27.136,87.391-57.38S264.149,271.208,215.327,268.944Z" transform="translate(-69.672 -102.54)" fill="#fbf5f5"/>
    </g>
    <text id="Economia_e_flexibilidade" data-name="Economia e flexibilidade" transform="translate(-4109 3317)" fill="#f5fbf9" font-size="60" font-family="Roboto-Medium, Roboto" font-weight="500"><tspan x="0" y="63">Economia e flexibilidade</tspan></text>
    <text id="Sem_encargos_trabalhitas" data-name="Sem encargos trabalhitas" transform="translate(-3378 3317)" fill="#f5fbf9" font-size="60" font-family="Roboto-Medium, Roboto" font-weight="500"><tspan x="0" y="63">Sem encargos trabalhitas</tspan></text>
    <text id="Sem_custos_fixos" data-name="Sem custos fixos" transform="translate(-2608 3317)" fill="#f5fbf9" font-size="60" font-family="Roboto-Medium, Roboto" font-weight="500"><tspan x="0" y="63">Sem custos fixos</tspan></text>
  </g>
</svg>
