<svg xmlns="http://www.w3.org/2000/svg" width="2085.65" height="770.084" viewBox="0 0 2085.65 770.084">
  <g id="Grupo_143" data-name="Grupo 143" transform="translate(4143 -2801)">
    <path id="Caminho_696" data-name="Caminho 696" d="M0,0H2085.65V770.084H0Z" transform="translate(-4143 2801)" fill="#111344"/>
    <g id="tempo-e-dinheiro" transform="translate(-3993.94 2911)">
      <g id="Grupo_129" data-name="Grupo 129">
        <g id="Grupo_128" data-name="Grupo 128">
          <path id="Caminho_665" data-name="Caminho 665" d="M253.444,123.13h80.035v31.146c-29.966,3.072-53.357,26.571-53.357,55.045A53.369,53.369,0,0,0,298.2,248.888a63.474,63.474,0,0,0,83.87.031,53.4,53.4,0,0,0,18.108-39.6c0-28.474-23.39-51.973-53.357-55.045V123.13h6.67a6.423,6.423,0,0,0,6.67-6.156V80.034a6.423,6.423,0,0,0-6.67-6.156H249.543a46.469,46.469,0,0,0,7.236-24.626C256.779,22.1,232.842,0,203.422,0s-53.357,22.1-53.357,49.252a46.506,46.506,0,0,0,7.23,24.626H46.687a6.423,6.423,0,0,0-6.67,6.156v36.939a6.423,6.423,0,0,0,6.67,6.156h6.67v31.146C23.39,157.347,0,180.847,0,209.32a53.369,53.369,0,0,0,18.075,39.568,62.113,62.113,0,0,0,41.952,15.841,62.089,62.089,0,0,0,41.918-15.81,53.4,53.4,0,0,0,18.108-39.6c0-28.474-23.39-51.973-53.357-55.045V123.13h80.035V289.355H0v12.313H187.936l-40.164,58.259a5.77,5.77,0,0,0-.22,6.273,6.79,6.79,0,0,0,5.849,3.189h93.374a6.782,6.782,0,0,0,5.849-3.2,5.77,5.77,0,0,0-.22-6.273L212.24,301.668H400.175V289.355H253.444Zm80.035,104.66a6.431,6.431,0,0,1-6.67-6.156H313.471c0,10.183,8.977,18.469,20.009,18.469v11.827a47.673,47.673,0,0,1-25.965-11.851,41.485,41.485,0,0,1-14.053-30.758c0-21.665,17.434-39.6,40.017-42.6v11.82c-11.031,0-20.009,8.287-20.009,18.469s8.977,18.469,20.009,18.469h13.339a6.176,6.176,0,1,1,0,12.313Zm53.357-18.469a41.514,41.514,0,0,1-14.086,30.789,47.643,47.643,0,0,1-25.931,11.82V240.1c11.031,0,20.009-8.287,20.009-18.469s-8.977-18.469-20.009-18.469H333.479a6.176,6.176,0,1,1,0-12.313h13.339a6.431,6.431,0,0,1,6.67,6.156h13.339c0-10.183-8.977-18.469-20.009-18.469v-11.82C369.4,169.722,386.836,187.656,386.836,209.32ZM203.422,12.313c22.07,0,40.018,16.567,40.018,36.939a35.553,35.553,0,0,1-12.085,26.393,42.261,42.261,0,0,1-55.9-.037A35.518,35.518,0,0,1,163.4,49.252C163.4,28.88,181.353,12.313,203.422,12.313ZM106.713,209.32a41.514,41.514,0,0,1-14.086,30.789,48.254,48.254,0,0,1-32.6,12.307,48.278,48.278,0,0,1-32.634-12.338A41.485,41.485,0,0,1,13.339,209.32c0-23.758,20.949-43.1,46.687-43.1S106.713,185.563,106.713,209.32ZM234.629,357.076H165.546l34.542-50.1Zm5.476-240.1V289.355H206.757V178.538H193.418V289.355H160.07V116.973a6.423,6.423,0,0,0-6.67-6.156H53.357V86.191H168.28a56.315,56.315,0,0,0,70.291,0H346.818v24.626H246.775A6.423,6.423,0,0,0,240.105,116.973Z" fill="#fff"/>
        </g>
      </g>
      <g id="Grupo_131" data-name="Grupo 131" transform="translate(26.678 178.538)">
        <g id="Grupo_130" data-name="Grupo 130">
          <path id="Caminho_666" data-name="Caminho 666" d="M58.678,232v24.626H32v12.313H65.348a6.423,6.423,0,0,0,6.67-6.156V232Z" transform="translate(-32 -232)" fill="#fff"/>
        </g>
      </g>
    </g>
    <g id="curriculo_1_" data-name="curriculo (1)" transform="translate(-3238.665 2928.7)">
      <path id="Caminho_674" data-name="Caminho 674" d="M53.409,176.871H118.5c4.214,0,7.624-3.15,7.624-7.037V144.081c0-14.432-12.72-26.171-28.362-26.171H74.137c-15.632,0-28.352,11.739-28.352,26.171v25.753c0,3.887,3.41,7.037,7.624,7.037Zm7.621-32.791c0-6.671,5.881-12.1,13.108-12.1H97.764c7.236,0,13.118,5.429,13.118,12.1V162.8H61.029Zm0,0" transform="translate(-7.672 -27.171)" fill="#f9f6f6"/>
      <path id="Caminho_675" data-name="Caminho 675" d="M57.272,86.871a102.576,102.576,0,0,0,29.717,4.455A102.538,102.538,0,0,0,116.7,86.871a7.5,7.5,0,0,0,4.445-3.529,6.533,6.533,0,0,0,.417-5.4L110.906,48.655c-3.432-9.49-13.043-15.866-23.917-15.866-10.825,0-20.448,6.358-23.975,15.866l-10.6,29.3a6.55,6.55,0,0,0,.417,5.4,7.5,7.5,0,0,0,4.442,3.523Zm20.181-33.71a10.057,10.057,0,0,1,9.535-6.3,9.912,9.912,0,0,1,9.461,6.265l8.106,22.281a82.683,82.683,0,0,1-35.149,0Zm0,0" transform="translate(-8.709 -7.556)" fill="#f9f6f6"/>
      <path id="Caminho_676" data-name="Caminho 676" d="M167.023,100.942H280.884c4.211,0,7.621-3.15,7.621-7.037s-3.41-7.034-7.621-7.034H167.023c-4.211,0-7.621,3.15-7.621,7.034S162.812,100.942,167.023,100.942Zm0,0" transform="translate(-26.567 -20.018)" fill="#f9f6f6"/>
      <path id="Caminho_677" data-name="Caminho 677" d="M167.023,144.665H280.884c4.211,0,7.621-3.15,7.621-7.034s-3.41-7.037-7.621-7.037H167.023c-4.211,0-7.621,3.15-7.621,7.037S162.812,144.665,167.023,144.665Zm0,0" transform="translate(-26.567 -30.094)" fill="#f9f6f6"/>
      <path id="Caminho_678" data-name="Caminho 678" d="M167.023,188.391H280.884c4.211,0,7.621-3.15,7.621-7.034s-3.41-7.037-7.621-7.037H167.023c-4.211,0-7.621,3.15-7.621,7.037S162.812,188.391,167.023,188.391Zm0,0" transform="translate(-26.567 -40.17)" fill="#f9f6f6"/>
      <path id="Caminho_679" data-name="Caminho 679" d="M45.936,232.117H264.124c4.214,0,7.624-3.15,7.624-7.037s-3.41-7.037-7.624-7.037H45.936c-4.214,0-7.624,3.15-7.624,7.037S41.722,232.117,45.936,232.117Zm0,0" transform="translate(-6.43 -50.246)" fill="#f9f6f6"/>
      <path id="Caminho_680" data-name="Caminho 680" d="M45.936,275.845H264.124c4.214,0,7.624-3.15,7.624-7.037s-3.41-7.034-7.624-7.034H45.936c-4.214,0-7.624,3.15-7.624,7.034S41.722,275.845,45.936,275.845Zm0,0" transform="translate(-6.43 -60.323)" fill="#f9f6f6"/>
      <path id="Caminho_681" data-name="Caminho 681" d="M306.158,213.427a81.155,81.155,0,0,0-8.9.535V7.037C297.261,3.15,293.855,0,289.64,0H7.694C3.48,0,.07,3.15.07,7.037V267.368H.142A6.687,6.687,0,0,0,2.3,272.337l83.764,77.4a7.947,7.947,0,0,0,5.39,2.065s216.921-.042,216.989-.108c40.291-1.13,72.714-31.621,72.714-69.029,0-38.177-33.648-69.236-75-69.236ZM83.834,327.763,26.081,274.4H83.834Zm15.248,9.962V267.368c0-3.887-3.41-7.037-7.624-7.037H15.315V14.071h266.7V217.185A75.924,75.924,0,0,0,251.873,235.1H39.567c-4.211,0-7.621,3.15-7.621,7.037s3.41,7.034,7.621,7.034H240.65a64.771,64.771,0,0,0-9.392,33.491c0,22.48,11.737,42.428,29.8,55.063Zm207.076,0c-32.9,0-59.655-24.7-59.655-55.063,0-30.419,26.76-55.165,59.655-55.165,32.954,0,59.759,24.746,59.759,55.165,0,30.362-26.805,55.063-59.759,55.063Zm0,0" transform="translate(-0.07 0)" fill="#f9f6f6"/>
      <path id="Caminho_682" data-name="Caminho 682" d="M390.589,331.02a8.079,8.079,0,0,0-10.779,0l-18.9,17.447-18.9-17.447a8.075,8.075,0,0,0-10.776,0,6.655,6.655,0,0,0,0,9.95l18.9,17.447-18.9,17.447a6.655,6.655,0,0,0,0,9.95,8.07,8.07,0,0,0,10.776,0l18.9-17.447,18.9,17.447a8.074,8.074,0,0,0,10.779,0,6.66,6.66,0,0,0,0-9.95l-18.9-17.447,18.9-17.447A6.66,6.66,0,0,0,390.589,331.02Zm0,0" transform="translate(-54.771 -75.805)" fill="#f9f6f6"/>
    </g>
    <g id="dolar" transform="translate(-2526.244 2910.7)">
      <g id="Grupo_142" data-name="Grupo 142" transform="translate(33.527 14.648)">
        <path id="Caminho_690" data-name="Caminho 690" d="M258.447,261.559,246.4,274.322c47.873,6.858,83.627,32.941,83.627,64.007,0,34.656-44.4,63.011-100.574,65.678V292.244l-16.762,17.731v93.783a135.016,135.016,0,0,1-69.949-19.8l-10.661,11.284c.084,0,.117.146.2.205,23.426,14.77,51.527,22.8,80.409,22.992v7.811c0,4.046,3.753,7.327,8.381,7.327s8.381-3.281,8.381-7.327v-7.605c65.373-2.784,117.336-37.7,117.336-80.317C346.785,302.252,309.539,271.787,258.447,261.559Z" transform="translate(-95.349 -96.544)" fill="#009688"/>
        <path id="Caminho_691" data-name="Caminho 691" d="M176.119,193.842l12.2-12.91c-49.181-6.345-86.226-32.737-86.226-64.359,0-34.656,44.4-63.011,100.574-65.678V165.75L219.433,148V51.1A134.81,134.81,0,0,1,289.65,71.044a8.582,8.582,0,0,0,1.777.762l10.057-10.7a7.524,7.524,0,0,0-1.676-1.7C276.385,44.66,248.3,36.642,219.433,36.461v-7.81c0-4.046-3.753-7.327-8.381-7.327s-8.381,3.281-8.381,7.327v7.605C137.3,39.04,85.334,73.945,85.334,116.573,85.335,153.207,123.771,184.112,176.119,193.842Z" transform="translate(-85.334 -21.324)" fill="#009688"/>
      </g>
      <path id="Caminho_692" data-name="Caminho 692" d="M51.049,351.682c-4.629,0-8.382-3.278-8.384-7.324a6.786,6.786,0,0,1,1.913-4.662L363.063,2.66a9.232,9.232,0,0,1,11.8-.982A6.716,6.716,0,0,1,375.987,12h0L57.5,349.029A8.9,8.9,0,0,1,51.049,351.682Z" transform="translate(-42.665 0)" fill="#f44336"/>
      <path id="Caminho_693" data-name="Caminho 693" d="M51.049,351.682c-4.629,0-8.382-3.278-8.384-7.324a6.786,6.786,0,0,1,1.913-4.662L363.063,2.66a9.232,9.232,0,0,1,11.8-.982A6.716,6.716,0,0,1,375.987,12h0L57.5,349.029A8.9,8.9,0,0,1,51.049,351.682Z" transform="translate(-42.665 0)" fill="#fff"/>
      <path id="Caminho_694" data-name="Caminho 694" d="M211.053,197.168c-69.329,0-125.718-36.15-125.718-80.6,0-42.642,51.963-77.665,117.336-80.419v-7.5c0-4.046,3.753-7.327,8.381-7.327s8.381,3.281,8.381,7.327v7.473c28.943.239,57.077,8.386,80.459,23.3,3.769,2.349,4.646,6.924,1.96,10.219a9.179,9.179,0,0,1-11.689,1.713q-.227-.142-.445-.3a134.221,134.221,0,0,0-70.285-20.266V189.841C219.434,193.888,215.681,197.168,211.053,197.168ZM202.671,50.822C146.484,53.416,102.1,81.917,102.1,116.573s44.387,63.158,100.574,65.751Z" transform="translate(-51.808 -6.676)" fill="#fff"/>
      <path id="Caminho_695" data-name="Caminho 695" d="M220.15,431.835c-4.629,0-8.381-3.281-8.381-7.327v-7.473c-28.943-.239-57.077-8.386-80.459-23.3-3.769-2.349-4.646-6.925-1.96-10.219a9.179,9.179,0,0,1,11.689-1.713q.227.142.445.3a134.221,134.221,0,0,0,70.285,20.266V263.317c0-4.046,3.753-7.327,8.381-7.327,69.329,0,125.718,36.15,125.718,80.6,0,42.642-51.963,77.665-117.336,80.419v7.5C228.531,428.554,224.778,431.835,220.15,431.835Zm8.381-161v131.5c56.187-2.594,100.574-31.095,100.574-65.751S284.718,273.428,228.531,270.834Z" transform="translate(-60.905 -80.152)" fill="#fbf5f5"/>
    </g>
    <text id="Economia_e_flexibilidade" data-name="Economia e flexibilidade" transform="translate(-4073 3317)" fill="#f5fbf9" font-size="50" font-family="Roboto-Medium, Roboto" font-weight="500"><tspan x="0" y="52">Economia e flexibilidade</tspan></text>
    <text id="Sem_encargos_trabalhitas" data-name="Sem encargos trabalhitas" transform="translate(-3351 3317)" fill="#f5fbf9" font-size="50" font-family="Roboto-Medium, Roboto" font-weight="500"><tspan x="0" y="52">Sem encargos trabalhitas</tspan></text>
    <text id="Sem_custos_fixos" data-name="Sem custos fixos" transform="translate(-2575 3317)" fill="#f5fbf9" font-size="50" font-family="Roboto-Medium, Roboto" font-weight="500"><tspan x="0" y="52">Sem custos fixos</tspan></text>
  </g>
</svg>
