<svg xmlns="http://www.w3.org/2000/svg" width="480" height="512" viewBox="0 0 480 512">
  <g id="nao" transform="translate(-16)">
    <path id="Caminho_683" data-name="Caminho 683" d="M496,60H215.855A105.011,105.011,0,1,0,166,199.855V512H496ZM46,105a75,75,0,1,1,75,75A75.085,75.085,0,0,1,46,105ZM466,482H196V178.4A104.846,104.846,0,0,0,224.924,90H466Z" fill="#f9f4f4"/>
    <path id="Caminho_684" data-name="Caminho 684" d="M331,270a15.017,15.017,0,0,1-15-15H286a45.071,45.071,0,0,0,30,42.42V315h30V297.42A45.071,45.071,0,0,0,376,255c0-34.619-25.977-40.858-41.5-44.585C317.9,206.428,316,204.843,316,195a15,15,0,0,1,30,0h30a45.071,45.071,0,0,0-30-42.42V135H316v17.58A45.071,45.071,0,0,0,286,195c0,34.619,25.977,40.858,41.5,44.585C344.1,243.572,346,245.157,346,255A15.017,15.017,0,0,1,331,270Z" fill="#f9f4f4"/>
    <path id="Caminho_685" data-name="Caminho 685" d="M286,362H436v30H286Z" fill="#f9f4f4"/>
    <path id="Caminho_686" data-name="Caminho 686" d="M286,422H436v30H286Z" fill="#f9f4f4"/>
    <path id="Caminho_687" data-name="Caminho 687" d="M226,362h30v30H226Z" fill="#f9f4f4"/>
    <path id="Caminho_688" data-name="Caminho 688" d="M226,422h30v30H226Z" fill="#f9f4f4"/>
    <path id="Caminho_689" data-name="Caminho 689" d="M142.213,62.573,121,83.787,99.787,62.573,78.574,83.787,99.787,105,78.574,126.213l21.213,21.214L121,126.213l21.213,21.214,21.213-21.214L142.213,105l21.213-21.213Z" fill="#f9f4f4"/>
  </g>
</svg>
